<svg viewBox="0 0 707.05334 166.05333" class="h-10 w-auto" xmlns="http://www.w3.org/2000/svg"><g transform="matrix(1.3333333,0,0,-1.3333333,0,166.05333)" id="g10"><g transform="scale(0.1)" id="g12"><path fill="#f58113" d="m 1620.11,4.25 h 49.64 v 108.801 h 99.4 V 4.25 h 49.65 v 248.109 h -49.65 V 152.102 h -99.4 v 100.257 h -49.64 z m 336.4,124.77 C 1956.51,52.9414 1998.37,0 2077.88,0 c 78.41,0 121.35,53.9883 121.35,129.02 0,75.039 -43.63,127.625 -121.35,127.625 -78.79,0 -121.37,-51.504 -121.37,-127.625 m 51.76,0 c 0,43.75 20.26,88.57 69.61,88.57 49.32,0 69.58,-44.82 69.58,-88.57 0,-44.8286 -18.86,-89.9614 -69.58,-89.9614 -50.76,0 -69.61,45.1328 -69.61,89.9614 M 2382,4.25 h 49.65 v 209.051 h 70.99 v 39.058 H 2311.03 V 213.301 H 2382 Z m 573.14,243.547 c -18.1,5.988 -37.97,8.848 -59.28,8.848 -43.66,0 -86.58,-20.215 -86.58,-75.684 0,-82.1915 108.62,-62.621 108.62,-109.9219 0,-22.3907 -25.21,-31.9805 -44.09,-31.9805 -19.48,0 -38.97,6.0312 -55.98,15.2695 L 2813.18,9.58984 C 2837.67,3.55859 2849.69,0 2876.68,0 c 50.03,0 92.95,20.5703 92.95,74.9492 0,83.2308 -108.58,65.1328 -108.58,108.1408 0,26.992 22.05,34.5 39.06,34.5 17.45,0 34.8,-3.942 50.39,-10.668 z M 3094.96,129.02 C 3094.96,52.9414 3136.8,0 3216.3,0 c 78.46,0 121.34,53.9883 121.34,129.02 0,75.039 -43.58,127.625 -121.34,127.625 -78.81,0 -121.34,-51.504 -121.34,-127.625 m 51.78,0 c 0,43.75 20.21,88.57 69.56,88.57 49.38,0 69.56,-44.82 69.56,-88.57 0,-44.8286 -18.79,-89.9614 -69.56,-89.9614 -50.77,0 -69.56,45.1328 -69.56,89.9614 M 3475.38,4.25 h 49.64 v 108.801 h 83.76 v 39.051 h -83.76 v 61.199 h 88.01 v 39.058 h -137.65 z m 314.8,0 h 49.64 v 209.051 h 70.91 v 39.058 h -191.55 v -39.058 h 71 z m 284.94,0 h 64.23 l 44,198.371 h 0.69 L 4228.74,4.25 h 63.93 l 64.57,248.109 h -48.26 L 4262.5,53.9883 h -0.69 l -43.74,198.3707 h -67.36 L 4108.45,53.9883 h -0.7 l -46.13,198.3707 h -52.16 z m 527.7,95.949 h -72.38 l 35.84,102.422 h 0.69 z M 4443.13,4.25 h 51.46 l 21.61,56.8984 h 100.46 L 4637.97,4.25 h 54.99 l -97.26,248.109 h -56.06 z m 419.38,209.051 h 16.4 c 24.82,0 52.52,-2.481 52.52,-32.34 0,-30.981 -28.04,-34.539 -52.52,-34.539 h -16.4 z M 4812.9,4.25 h 49.61 v 103.121 h 16.05 c 20.92,0 27.3,-7.121 34.42,-25.6093 L 4942.79,4.25 h 55.34 l -39.71,97.082 c -5,11.027 -12.77,24.52 -26.3,25.609 v 0.649 c 31.59,4.25 51.07,28.422 51.07,57.629 0,68.918 -63.48,67.14 -116.73,67.14 h -53.56 z m 313.37,0 h 146.86 v 39.0703 h -97.21 v 69.7307 h 88.36 v 39.051 h -88.36 v 61.199 h 96.51 v 39.058 H 5126.27 V 4.25"></path><path fill="#f58113" d="m 1625.64,586.938 c 36.39,-23.086 79.07,-36.407 136.74,-36.407 76.38,0 139.44,39.055 139.44,126.977 0,121.687 -284.17,136.789 -284.17,299.308 0,99.424 87.06,161.614 196.29,161.614 30.16,0 79,-4.47 121.62,-20.44 l -9.79,-55.94 c -27.49,15.1 -71,23.09 -112.77,23.09 -63.92,0 -134.07,-26.65 -134.07,-106.542 0,-124.375 284.18,-125.243 284.18,-306.426 0,-125.195 -107.45,-174.891 -203.35,-174.891 -60.39,0 -107.46,12.41 -140.35,26.602 l 6.23,63.055"></path><path fill="#f58113" d="m 2269.47,1127.75 h 61.28 V 849.797 l 278.86,277.953 h 79.85 l -300.1,-292.145 325.88,-327.691 h -84.36 L 2330.75,817.813 V 507.914 h -61.28 v 619.836"></path><path fill="#f58113" d="m 2979,1127.75 h 303.7 v -53.29 H 3040.28 V 853.355 h 230 v -53.292 h -230 V 561.207 h 253.05 V 507.914 H 2979 v 619.836"></path><path fill="#f58113" d="m 3592.64,1127.75 h 61.27 V 561.207 h 248.62 v -53.293 h -309.89 v 619.836"></path><path fill="#f58113" d="m 4167.12,1127.75 h 152.75 c 116.35,0 191.82,-58.63 191.82,-175.84 0,-115.398 -87.05,-175.801 -198.07,-175.801 H 4228.4 V 507.914 h -61.28 z m 61.28,-298.352 h 42.62 c 92.34,0 179.39,10.586 179.39,122.512 0,78.15 -44.43,122.55 -122.55,122.55 H 4228.4 V 829.398"></path><path fill="#f58113" d="m 5030.27,1138.38 c 186.53,0 274.45,-152.712 272.67,-320.567 -1.78,-189.993 -94.13,-320.571 -272.67,-320.571 -178.48,0 -270.79,130.578 -272.61,320.571 -1.73,167.855 86.19,320.567 272.61,320.567 M 4818.94,817.813 c 0,-131.407 65.75,-267.282 211.33,-267.282 145.65,0 211.39,135.875 211.39,267.282 0,131.449 -65.74,267.327 -211.39,267.327 -145.58,0 -211.33,-135.878 -211.33,-267.327"></path><path fill="#f58113" d="m 762.633,1005.11 v 133.75 c -314.996,104.76 -984.586,80.28 -557.086,-241.157 86.641,-65.09 343.726,-157.441 343.008,-304.426 -0.258,-63.183 -70.391,-101.113 -140.864,-96.515 -70.523,4.601 -129.043,55.156 -126.656,113.097 2.024,47.993 37.149,42.09 40.141,87.571 2.043,31.328 -17.77,62.664 -43.328,83.625 l -110.16,82.457 C -338.301,1243.23 425.375,1331.02 816.117,1165.63 V 978.379 Z M 66.9805,630.555 V 496.813 C 373.926,403.023 1051.57,416.52 624.105,737.965 c -86.66,65.09 -343.761,157.441 -343.07,304.465 0.328,63.14 70.391,101.07 140.934,96.47 70.472,-4.56 128.992,-55.15 126.586,-113.09 -1.996,-47.994 -37.278,-42.396 -40.203,-87.833 -2.043,-31.332 17.898,-62.407 43.418,-83.364 L 661.973,772.156 C 1167.89,392.438 404.262,304.645 13.4766,470.035 v 187.254 l 53.5039,-26.734"></path></g></g></svg>
<svg viewBox="0 0 707.05334 166.05333" class="h-8 w-auto" xmlns="http://www.w3.org/2000/svg"><g transform="matrix(1.3333333,0,0,-1.3333333,0,166.05333)" id="g10"><g transform="scale(0.1)" id="g12"><path fill="#f58113" d="m 1620.11,4.25 h 49.64 v 108.801 h 99.4 V 4.25 h 49.65 v 248.109 h -49.65 V 152.102 h -99.4 v 100.257 h -49.64 z m 336.4,124.77 C 1956.51,52.9414 1998.37,0 2077.88,0 c 78.41,0 121.35,53.9883 121.35,129.02 0,75.039 -43.63,127.625 -121.35,127.625 -78.79,0 -121.37,-51.504 -121.37,-127.625 m 51.76,0 c 0,43.75 20.26,88.57 69.61,88.57 49.32,0 69.58,-44.82 69.58,-88.57 0,-44.8286 -18.86,-89.9614 -69.58,-89.9614 -50.76,0 -69.61,45.1328 -69.61,89.9614 M 2382,4.25 h 49.65 v 209.051 h 70.99 v 39.058 H 2311.03 V 213.301 H 2382 Z m 573.14,243.547 c -18.1,5.988 -37.97,8.848 -59.28,8.848 -43.66,0 -86.58,-20.215 -86.58,-75.684 0,-82.1915 108.62,-62.621 108.62,-109.9219 0,-22.3907 -25.21,-31.9805 -44.09,-31.9805 -19.48,0 -38.97,6.0312 -55.98,15.2695 L 2813.18,9.58984 C 2837.67,3.55859 2849.69,0 2876.68,0 c 50.03,0 92.95,20.5703 92.95,74.9492 0,83.2308 -108.58,65.1328 -108.58,108.1408 0,26.992 22.05,34.5 39.06,34.5 17.45,0 34.8,-3.942 50.39,-10.668 z M 3094.96,129.02 C 3094.96,52.9414 3136.8,0 3216.3,0 c 78.46,0 121.34,53.9883 121.34,129.02 0,75.039 -43.58,127.625 -121.34,127.625 -78.81,0 -121.34,-51.504 -121.34,-127.625 m 51.78,0 c 0,43.75 20.21,88.57 69.56,88.57 49.38,0 69.56,-44.82 69.56,-88.57 0,-44.8286 -18.79,-89.9614 -69.56,-89.9614 -50.77,0 -69.56,45.1328 -69.56,89.9614 M 3475.38,4.25 h 49.64 v 108.801 h 83.76 v 39.051 h -83.76 v 61.199 h 88.01 v 39.058 h -137.65 z m 314.8,0 h 49.64 v 209.051 h 70.91 v 39.058 h -191.55 v -39.058 h 71 z m 284.94,0 h 64.23 l 44,198.371 h 0.69 L 4228.74,4.25 h 63.93 l 64.57,248.109 h -48.26 L 4262.5,53.9883 h -0.69 l -43.74,198.3707 h -67.36 L 4108.45,53.9883 h -0.7 l -46.13,198.3707 h -52.16 z m 527.7,95.949 h -72.38 l 35.84,102.422 h 0.69 z M 4443.13,4.25 h 51.46 l 21.61,56.8984 h 100.46 L 4637.97,4.25 h 54.99 l -97.26,248.109 h -56.06 z m 419.38,209.051 h 16.4 c 24.82,0 52.52,-2.481 52.52,-32.34 0,-30.981 -28.04,-34.539 -52.52,-34.539 h -16.4 z M 4812.9,4.25 h 49.61 v 103.121 h 16.05 c 20.92,0 27.3,-7.121 34.42,-25.6093 L 4942.79,4.25 h 55.34 l -39.71,97.082 c -5,11.027 -12.77,24.52 -26.3,25.609 v 0.649 c 31.59,4.25 51.07,28.422 51.07,57.629 0,68.918 -63.48,67.14 -116.73,67.14 h -53.56 z m 313.37,0 h 146.86 v 39.0703 h -97.21 v 69.7307 h 88.36 v 39.051 h -88.36 v 61.199 h 96.51 v 39.058 H 5126.27 V 4.25"></path><path fill="#f58113" d="m 1625.64,586.938 c 36.39,-23.086 79.07,-36.407 136.74,-36.407 76.38,0 139.44,39.055 139.44,126.977 0,121.687 -284.17,136.789 -284.17,299.308 0,99.424 87.06,161.614 196.29,161.614 30.16,0 79,-4.47 121.62,-20.44 l -9.79,-55.94 c -27.49,15.1 -71,23.09 -112.77,23.09 -63.92,0 -134.07,-26.65 -134.07,-106.542 0,-124.375 284.18,-125.243 284.18,-306.426 0,-125.195 -107.45,-174.891 -203.35,-174.891 -60.39,0 -107.46,12.41 -140.35,26.602 l 6.23,63.055"></path><path fill="#f58113" d="m 2269.47,1127.75 h 61.28 V 849.797 l 278.86,277.953 h 79.85 l -300.1,-292.145 325.88,-327.691 h -84.36 L 2330.75,817.813 V 507.914 h -61.28 v 619.836"></path><path fill="#f58113" d="m 2979,1127.75 h 303.7 v -53.29 H 3040.28 V 853.355 h 230 v -53.292 h -230 V 561.207 h 253.05 V 507.914 H 2979 v 619.836"></path><path fill="#f58113" d="m 3592.64,1127.75 h 61.27 V 561.207 h 248.62 v -53.293 h -309.89 v 619.836"></path><path fill="#f58113" d="m 4167.12,1127.75 h 152.75 c 116.35,0 191.82,-58.63 191.82,-175.84 0,-115.398 -87.05,-175.801 -198.07,-175.801 H 4228.4 V 507.914 h -61.28 z m 61.28,-298.352 h 42.62 c 92.34,0 179.39,10.586 179.39,122.512 0,78.15 -44.43,122.55 -122.55,122.55 H 4228.4 V 829.398"></path><path fill="#f58113" d="m 5030.27,1138.38 c 186.53,0 274.45,-152.712 272.67,-320.567 -1.78,-189.993 -94.13,-320.571 -272.67,-320.571 -178.48,0 -270.79,130.578 -272.61,320.571 -1.73,167.855 86.19,320.567 272.61,320.567 M 4818.94,817.813 c 0,-131.407 65.75,-267.282 211.33,-267.282 145.65,0 211.39,135.875 211.39,267.282 0,131.449 -65.74,267.327 -211.39,267.327 -145.58,0 -211.33,-135.878 -211.33,-267.327"></path><path fill="#f58113" d="m 762.633,1005.11 v 133.75 c -314.996,104.76 -984.586,80.28 -557.086,-241.157 86.641,-65.09 343.726,-157.441 343.008,-304.426 -0.258,-63.183 -70.391,-101.113 -140.864,-96.515 -70.523,4.601 -129.043,55.156 -126.656,113.097 2.024,47.993 37.149,42.09 40.141,87.571 2.043,31.328 -17.77,62.664 -43.328,83.625 l -110.16,82.457 C -338.301,1243.23 425.375,1331.02 816.117,1165.63 V 978.379 Z M 66.9805,630.555 V 496.813 C 373.926,403.023 1051.57,416.52 624.105,737.965 c -86.66,65.09 -343.761,157.441 -343.07,304.465 0.328,63.14 70.391,101.07 140.934,96.47 70.472,-4.56 128.992,-55.15 126.586,-113.09 -1.996,-47.994 -37.278,-42.396 -40.203,-87.833 -2.043,-31.332 17.898,-62.407 43.418,-83.364 L 661.973,772.156 C 1167.89,392.438 404.262,304.645 13.4766,470.035 v 187.254 l 53.5039,-26.734"></path></g></g></svg>
